#!OML:ASF H:\ManfredETheater\Project 1\Capture day 1\Session 1\subject.ASF
:FULLY-SPECIFIED
:DEGREES
75
root 8.9973 17.9703 13.0254 -173.133 -22.4768 -178.102
lowerback 19.4076 1.61489 6.14263
upperback -1.51267 3.68542 1.62646
thorax -12.366 1.31437 -2.74891
lowerneck -20.4914 -1.38026 -2.2705
upperneck 1.51834 -1.51884 -3.23223
head 3.65327 -1.17158 -0.796112
rclavicle -8.94531e-015 -2.38542e-015
rhumerus -6.70171 29.7897 -78.0021
rradius 98.3214
rwrist -5.11257
rhand -30.1705 14.9078
rfingers 7.12502
rthumb -3.48208 -15.0435
lclavicle -8.94531e-015 -2.38542e-015
lhumerus -48.9666 -11.6018 69.788
lradius 97.1907
lwrist 4.69482
lhand -30.3263 -16.0417
lfingers 7.12502
lthumb -3.63259 13.9071
rfemur -10.6872 3.02536 27.0582
rtibia 29.7035
rfoot -7.44976 -6.03681
rtoes -29.5457
lfemur -87.144 11.6705 -18.7619
ltibia 122.397
lfoot 6.63347 -10.5776
ltoes 3.3057
76
root 8.82067 18.2445 12.5941 -173.53 -22.6066 -178.273
lowerback 19.2539 1.80948 6.13214
upperback -1.53389 3.91132 1.3606
thorax -12.2617 1.41918 -3.09743
lowerneck -20.3236 -1.59185 -2.25739
upperneck 2.10851 -1.74025 -3.16642
head 3.81188 -1.26273 -0.798648
rclavicle 3.18055e-014 1.59028e-014
rhumerus -5.96882 30.7668 -76.7381
rradius 99.6854
rwrist -5.65537
rhand -30.0388 15.2196
rfingers 7.12502
rthumb -3.35492 -14.7337
lclavicle 3.18055e-014 1.59028e-014
lhumerus -49.2807 -11.2025 67.3307
lradius 96.1732
lwrist 5.57248
lhand -30.3794 -15.3778
lfingers 7.12502
lthumb -3.68386 14.5701
rfemur -6.58066 3.23597 26.7824
rtibia 24.988
rfoot -2.85863 -5.67836
rtoes -29.5912
lfemur -88.7877 10.561 -18.4565
ltibia 119.504
lfoot 6.71773 -9.82955
ltoes 3.91344
77
root 8.63895 18.5231 12.159 -173.943 -22.7002 -178.385
lowerback 19.0656 1.99953 6.15597
upperback -1.5349 4.13548 1.11562
thorax -12.1114 1.52367 -3.43678
lowerneck -20.1919 -1.78224 -2.23696
upperneck 2.69421 -1.94322 -3.05115
head 3.975 -1.34301 -0.78608
rclavicle 8.36883e-014 -1.11319e-014
rhumerus -5.36652 31.546 -75.6072
rradius 100.787
rwrist -6.04085
rhand -29.8919 15.4033
rfingers 7.12502
rthumb -3.21303 -14.5522
lclavicle 8.36883e-014 -1.11319e-014
lhumerus -49.4896 -10.7954 64.9175
lradius 94.8204
lwrist 6.30507
lhand -30.473 -14.8221
lfingers 7.12502
lthumb -3.77428 15.1242
rfemur -2.38578 3.32557 26.5256
rtibia 19.783
rfoot 2.76673 -5.82693
rtoes -28.6738
lfemur -90.0553 9.6133 -18.0305
ltibia 116.403
lfoot 6.76056 -9.12431
ltoes 4.37353
78
root 8.45234 18.8012 11.7207 -174.363 -22.7447 -178.438
lowerback 18.8352 2.1891 6.21082
upperback -1.52268 4.36285 0.889845
thorax -11.9185 1.63067 -3.76742
lowerneck -20.1172 -1.95492 -2.19846
upperneck 3.3136 -2.13054 -2.90943
head 4.15768 -1.41495 -0.768135
rclavicle -6.95746e-015 -8.74653e-015
rhumerus -4.90841 32.1707 -74.6323
rradius 101.659
rwrist -6.23272
rhand -29.7421 15.4103
rfingers 7.12502
rthumb -3.06836 -14.5474
lclavicle -6.95746e-015 -8.74653e-015
lhumerus -49.5955 -10.3993 62.5564
lradius 93.1489
lwrist 6.79092
lhand -30.6315 -14.4374
lfingers 7.12502
lthumb -3.92734 15.5061
rfemur 2.11575 3.21365 26.2688
rtibia 13.6757
rfoot 9.39965 -6.86278
rtoes -26.1069
lfemur -91.0218 8.83288 -17.5063
ltibia 113.167
lfoot 6.7536 -8.48506
ltoes 4.65367
79
root 8.26187 19.0808 11.2804 -174.78 -22.7262 -178.436
lowerback 18.5662 2.38228 6.29531
upperback -1.50522 4.59969 0.683851
thorax -11.6936 1.74311 -4.08938
lowerneck -20.0994 -2.11302 -2.15599
upperneck 3.97973 -2.30247 -2.74575
head 4.36439 -1.47883 -0.74418
rclavicle -8.64713e-015 1.11319e-014
rhumerus -4.58482 32.6697 -73.8076
rradius 102.328
rwrist -6.21307
rhand -29.5521 15.2632
rfingers 7.12502
rthumb -2.8849 -14.697
lclavicle -8.64713e-015 1.11319e-014
lhumerus -49.6108 -10.0318 60.2622
lradius 91.1896
lwrist 6.99079
lhand -30.8781 -14.2151
lfingers 7.12502
lthumb -4.16544 15.7239
rfemur 8.39854 2.9036 25.9962
rtibia 3.76645
rfoot 18.025 -9.22408
rtoes -22.3294
lfemur -91.7039 8.21936 -16.9033
ltibia 109.814
lfoot 6.67304 -7.94443
ltoes 4.66141
80
root 8.0692 19.3607 10.8395 -175.18 -22.636 -178.386
lowerback 18.252 2.58404 6.38898
upperback -1.48539 4.8484 0.503395
thorax -11.4379 1.86393 -4.38437
lowerneck -20.1264 -2.25506 -2.11972
upperneck 4.6801 -2.45564 -2.57318
head 4.58968 -1.53381 -0.716123
rclavicle -5.38706e-014 -1.11319e-014
rhumerus -4.37853 33.084 -73.1116
rradius 102.833
rwrist -5.9936
rhand -29.347 14.9359
rfingers 7.12502
rthumb -2.68684 -15.027
lclavicle -5.38706e-014 -1.11319e-014
lhumerus -49.5522 -9.70472 58.0502
lradius 88.9908
lwrist 6.94541
lhand -31.2125 -14.1121
lfingers 7.12502
lthumb -4.48834 15.8203
rfemur 11.5193 2.6892 25.7591
rtibia -1.90833e-014
rfoot 23.1986 -12.0827
rtoes -18.0421
lfemur -92.1422 7.77005 -16.2438
ltibia 106.368
lfoot 6.49962 -7.52774
ltoes 4.26348
81
root 7.87625 19.6409 10.3997 -175.562 -22.4804 -178.292
lowerback 17.903 2.79282 6.47826
upperback -1.46493 5.10571 0.357377
thorax -11.1621 1.99228 -4.63427
lowerneck -20.1696 -2.37971 -2.10649
upperneck 5.37894 -2.58717 -2.39317
head 4.81838 -1.57868 -0.680686
rclavicle -5.52621e-014 6.36111e-015
rhumerus -4.26529 33.4455 -72.514
rradius 103.209
rwrist -5.62329
rhand -29.1049 14.4622
rfingers 7.12502
rthumb -2.453 -15.5034
lclavicle -5.52621e-014 6.36111e-015
lhumerus -49.4423 -9.42106 55.939
lradius 86.6064
lwrist 6.74858
lhand -31.6202 -14.0913
lfingers 7.12502
lthumb -4.88205 15.8325
rfemur 12.7126 2.5473 25.5669
rtibia 4.13472e-014
rfoot 25.9008 -14.5793
rtoes -14.0326
lfemur -92.356 7.46734 -15.5319
ltibia 102.841
lfoot 6.2268 -7.23301
ltoes 3.50433
82
root 7.68477 19.9203 9.96284 -175.934 -22.2646 -178.149
lowerback 17.548 3.00087 6.56361
upperback -1.44663 5.36398 0.249379
thorax -10.8875 2.12326 -4.83566
lowerneck -20.2081 -2.48716 -2.12821
upperneck 6.05031 -2.69623 -2.20289
head 5.03934 -1.61303 -0.634287
rclavicle -2.98177e-015 3.4191e-014
rhumerus -4.22272 33.7909 -72.0006
rradius 103.494
rwrist -5.14553
rhand -28.8274 13.8897
rfingers 7.12502
rthumb -2.18501 -16.0788
lclavicle -2.98177e-015 3.4191e-014
lhumerus -49.3121 -9.18452 53.9336
lradius 84.0972
lwrist 6.54021
lhand -32.0577 -14.0967
lfingers 7.12502
lthumb -5.3044 15.8169
rfemur 13.9178 2.47312 25.4419
rtibia 2.54444e-014
rfoot 28.1031 -16.5256
rtoes -10.8563
lfemur -92.3545 7.29679 -14.7734
ltibia 99.2419
lfoot 5.85107 -7.04618
ltoes 2.39192
83
root 7.49625 20.1977 9.53083 -176.319 -22.0048 -177.947
lowerback 17.1991 3.20954 6.63257
upperback -1.41634 5.62423 0.205985
thorax -10.6095 2.25881 -4.95321
lowerneck -20.2252 -2.58021 -2.19898
upperneck 6.65324 -2.78282 -2.02353
head 5.23683 -1.63924 -0.580606
rclavicle 8.87574e-014 1.55052e-014
rhumerus -4.21949 34.1343 -71.5103
rradius 103.72
rwrist -4.60293
rhand -28.5173 13.2405
rfingers 7.12502
rthumb -1.8855 -16.7309
lclavicle 8.87574e-014 1.55052e-014
lhumerus -49.1772 -8.98343 52.0765
lradius 81.5183
lwrist 6.43372
lhand -32.4918 -14.0427
lfingers 7.12502
lthumb -5.72354 15.86
rfemur 15.1741 2.44701 25.4045
rtibia -2.22639e-014
rfoot 30.0069 -17.7466
rtoes -8.53046
lfemur -92.1389 7.23455 -13.963
ltibia 95.5834
lfoot 5.37774 -6.94528
ltoes 0.96823
84
root 7.31175 20.4702 9.10439 -176.742 -21.7267 -177.675
lowerback 16.8859 3.40667 6.68931
upperback -1.36753 5.87322 0.235899
thorax -10.3413 2.39136 -4.97964
lowerneck -20.2146 -2.65586 -2.32473
upperneck 7.16225 -2.84159 -1.8516
head 5.40162 -1.65491 -0.516572
rclavicle 5.60573e-014 3.4191e-014
rhumerus -4.23038 34.49 -71.0225
rradius 103.907
rwrist -4.02761
rhand -28.174 12.5919
rfingers 7.12502
rthumb -1.55395 -17.3822
lclavicle 5.60573e-014 3.4191e-014
lhumerus -49.0641 -8.8062 50.3724
lradius 78.9182
lwrist 6.50512
lhand -32.8835 -13.8549
lfingers 7.12502
lthumb -6.10178 16.0372
rfemur 16.5125 2.439 25.4715
rtibia 0
rfoot 31.8013 -18.24
rtoes -6.96327
lfemur -91.7156 7.24735 -13.0976
ltibia 91.8872
lfoot 4.8255 -6.89342
ltoes -0.647937
85
root 7.13141 20.7341 8.6838 -177.23 -21.4497 -177.319
lowerback 16.6341 3.58559 6.75126
upperback -1.29582 6.10692 0.344149
thorax -10.0934 2.51685 -4.92169
lowerneck -20.1666 -2.7168 -2.49956
upperneck 7.56722 -2.87605 -1.69268
head 5.52846 -1.66208 -0.444872
rclavicle -1.92821e-014 3.02153e-014
rhumerus -4.26439 34.855 -70.537
rradius 104.077
rwrist -3.44103
rhand -27.8099 11.9809
rfingers 7.12502
rthumb -1.20227 -17.9954
lclavicle -1.92821e-014 3.02153e-014
lhumerus -48.9942 -8.65041 48.8201
lradius 76.3329
lwrist 6.77691
lhand -33.192 -13.5338
lfingers 7.12502
lthumb -6.39955 16.3495
rfemur 17.9454 2.42578 25.6547
rtibia -4.77083e-014
rfoot 33.5644 -18.1459
rtoes -5.8074
lfemur -91.0963 7.30756 -12.1718
ltibia 88.1823
lfoot 4.2209 -6.8443
ltoes -2.33174
86
root 6.95505 20.9861 8.26858 -177.806 -21.2036 -176.876
lowerback 16.4658 3.73496 6.83121
upperback -1.1984 6.31303 0.52759
thorax -9.87581 2.62738 -4.79054
lowerneck -20.104 -2.76551 -2.70731
upperneck 7.89251 -2.88924 -1.56066
head 5.62792 -1.66311 -0.373336
rclavicle 6.2319e-014 1.59028e-015
rhumerus -4.33333 35.2203 -70.0625
rradius 104.241
rwrist -2.86041
rhand -27.4486 11.4232
rfingers 7.12502
rthumb -0.853362 -18.5548
lclavicle 6.2319e-014 1.59028e-015
lhumerus -48.9832 -8.50813 47.4079
lradius 73.7872
lwrist 7.23675
lhand -33.4017 -13.1112
lfingers 7.12502
lthumb -6.60198 16.7659
rfemur 19.4585 2.37429 25.9446
rtibia 6.99722e-014
rfoot 35.3803 -17.8058
rtoes -4.80198
lfemur -90.2912 7.36759 -11.1847
ltibia 84.4975
lfoot 3.60221 -6.76457
ltoes -3.96513
87
root 6.7819 21.2247 7.85762 -178.476 -21.0096 -176.359
lowerback 16.3859 3.84888 6.93235
upperback -1.0764 6.48309 0.774018
thorax -9.69238 2.71775 -4.60126
lowerneck -20.0256 -2.79691 -2.92645
upperneck 8.15145 -2.87837 -1.45461
head 5.70351 -1.65568 -0.304873
rclavicle -3.72721e-015 1.11319e-014
rhumerus -4.46443 35.569 -69.6179
rradius 104.41
rwrist -2.30089
rhand -27.092 10.9685
rfingers 7.12502
rthumb -0.508933 -19.0106
lclavicle -3.72721e-015 1.11319e-014
lhumerus -49.0397 -8.37298 46.1138
lradius 71.2881
lwrist 7.80182
lhand -33.4946 -12.6181
lfingers 7.12502
lthumb -6.69167 17.2562
rfemur 21.0329 2.25971 26.3188
rtibia 6.36111e-015
rfoot 37.3432 -17.2313
rtoes -4.00431
lfemur -89.3103 7.38754 -10.1529
ltibia 80.86
lfoot 2.98247 -6.62147
ltoes -5.54018
